<?xml version="1.0" encoding="utf-8"?>
<!-- Generator: Adobe Illustrator 19.0.0, SVG Export Plug-In . SVG Version: 6.00 Build 0)  -->
<svg version="1.1" id="Layer_1" xmlns="http://www.w3.org/2000/svg" xmlns:xlink="http://www.w3.org/1999/xlink" x="0px" y="0px"
	 viewBox="0 0 272.3 272.3" enable-background="new 0 0 272.3 272.3" xml:space="preserve">
<g id="XMLID_2_" opacity="5.000000e-002">
	<g>
		<path fill="#0A2645" d="M118.8,237.4C118.8,237.4,118.8,237.4,118.8,237.4c-0.6,0-1-0.5-1-1l0.4-13.1c0-0.6,0.5-1,1-1
			c0.6,0,1,0.5,1,1l-0.4,13.1C119.8,236.9,119.4,237.4,118.8,237.4z"/>
	</g>
	<g>
		<path fill="#0A2645" d="M87.1,130.2c-0.5,0-0.9-0.3-1-0.8l-1-4.4c-0.1-0.5,0.2-1.1,0.8-1.2c0.5-0.1,1.1,0.2,1.2,0.8l1,4.4
			c0.1,0.5-0.2,1.1-0.8,1.2C87.2,130.2,87.2,130.2,87.1,130.2z"/>
	</g>
	<g>
		<path fill="#0A2645" d="M52.1,250c-0.4,0-0.8-0.3-0.9-0.7l-1.5-4.3c-0.2-0.5,0.1-1.1,0.6-1.3c0.5-0.2,1.1,0.1,1.3,0.6l1.5,4.3
			c0.2,0.5-0.1,1.1-0.6,1.3C52.3,249.9,52.2,250,52.1,250z"/>
	</g>
	<g>
		<path fill="#0A2645" d="M170.3,185.6c-0.1,0-0.2,0-0.3-0.1l-8-2.6c-0.5-0.2-0.8-0.7-0.6-1.3c0.2-0.5,0.7-0.8,1.3-0.6l8,2.6
			c0.5,0.2,0.8,0.7,0.6,1.3C171.1,185.4,170.7,185.6,170.3,185.6z"/>
	</g>
	<g>
		<path fill="#0A2645" d="M241.8,155.2c-0.2,0-0.4-0.1-0.6-0.2l-3.6-2.5c-0.4-0.3-0.6-0.9-0.2-1.4c0.3-0.5,0.9-0.6,1.4-0.2l3.6,2.5
			c0.4,0.3,0.6,0.9,0.2,1.4C242.4,155.1,242.1,155.2,241.8,155.2z"/>
	</g>
	<g>
		<path fill="#0A2645" d="M271.3,117.2c-0.4,0-0.8-0.2-0.9-0.6l-1.6-3.6c-0.2-0.5,0-1.1,0.5-1.3c0.5-0.2,1.1,0,1.3,0.5l1.6,3.6
			c0.2,0.5,0,1.1-0.5,1.3C271.6,117.1,271.5,117.2,271.3,117.2z"/>
	</g>
	<g>
		<path fill="#0A2645" d="M200.3,5.2c-0.2,0-0.4,0-0.5-0.1l-5.1-3.2c-0.5-0.3-0.6-0.9-0.3-1.4c0.3-0.5,0.9-0.6,1.4-0.3l5.1,3.2
			c0.5,0.3,0.6,0.9,0.3,1.4C200.9,5,200.6,5.2,200.3,5.2z"/>
	</g>
	<g>
		<path fill="#0A2645" d="M142.8,139.3c-0.4,0-0.7-0.2-0.9-0.6c-0.2-0.5,0-1.1,0.4-1.3l3.8-1.9c0.5-0.2,1.1,0,1.3,0.4
			c0.2,0.5,0,1.1-0.4,1.3l-3.8,1.9C143.1,139.3,142.9,139.3,142.8,139.3z"/>
	</g>
	<g>
		<path fill="#0A2645" d="M34.2,149.2c-0.2,0-0.4,0-0.5-0.1c-0.5-0.3-0.6-0.9-0.3-1.4l5.3-8.7c0.3-0.5,0.9-0.6,1.4-0.3
			c0.5,0.3,0.6,0.9,0.3,1.4l-5.3,8.7C34.9,149,34.6,149.2,34.2,149.2z"/>
	</g>
	<g>
		<path fill="#0A2645" d="M35.6,5.2c-0.5,0-1-0.4-1-0.9c0-0.6,0.4-1,0.9-1.1l15-1.1c0.6,0,1,0.4,1.1,0.9c0,0.6-0.4,1-0.9,1.1
			L35.6,5.2C35.6,5.2,35.6,5.2,35.6,5.2z"/>
	</g>
	<g>
		<path fill="#0A2645" d="M248.9,107.6c-0.3,0-0.6-0.2-0.8-0.4l-2.5-3.7c-0.3-0.5-0.2-1.1,0.3-1.4c0.5-0.3,1.1-0.2,1.4,0.3l2.5,3.7
			c0.3,0.5,0.2,1.1-0.3,1.4C249.3,107.6,249.1,107.6,248.9,107.6z"/>
	</g>
	<g>
		<path fill="#0A2645" d="M107.5,117.5c-0.3,0-0.5-0.1-0.7-0.3c-0.4-0.4-0.4-1,0-1.4l1.9-1.8c0.4-0.4,1-0.4,1.4,0
			c0.4,0.4,0.4,1,0,1.4l-1.9,1.8C108,117.4,107.8,117.5,107.5,117.5z"/>
	</g>
	<g>
		<path fill="#0A2645" d="M247.2,60.5c-0.1,0-0.2,0-0.2,0c-0.5-0.1-0.9-0.7-0.7-1.2L247,56c0.1-0.5,0.7-0.9,1.2-0.7
			c0.5,0.1,0.9,0.7,0.7,1.2l-0.8,3.3C248,60.2,247.6,60.5,247.2,60.5z"/>
	</g>
	<g>
		<path fill="#0A2645" d="M64,182.8c-0.2,0-0.3,0-0.5-0.1l-2.6-1.5c-0.5-0.3-0.6-0.9-0.4-1.4c0.3-0.5,0.9-0.6,1.4-0.4l2.6,1.5
			c0.5,0.3,0.6,0.9,0.4,1.4C64.7,182.6,64.3,182.8,64,182.8z"/>
	</g>
	<g>
		<path fill="#0A2645" d="M258.4,124.2c0,0-0.1,0-0.1,0l-2.6-0.3c-0.5-0.1-0.9-0.6-0.9-1.1c0.1-0.5,0.6-0.9,1.1-0.9l2.6,0.3
			c0.5,0.1,0.9,0.6,0.9,1.1C259.3,123.8,258.9,124.2,258.4,124.2z"/>
	</g>
	<g>
		<path fill="#0A2645" d="M219.1,140.2c-0.2,0-0.4-0.1-0.6-0.2l-8-5.4c-0.5-0.3-0.6-0.9-0.3-1.4c0.3-0.5,0.9-0.6,1.4-0.3l8,5.4
			c0.5,0.3,0.6,0.9,0.3,1.4C219.7,140,219.4,140.2,219.1,140.2z"/>
	</g>
	<g>
		<path fill="#0A2645" d="M125.5,6.7c-0.4,0-0.7-0.2-0.9-0.5c-0.3-0.5-0.1-1.1,0.4-1.3l6.7-3.5c0.5-0.3,1.1-0.1,1.3,0.4
			c0.3,0.5,0.1,1.1-0.4,1.3l-6.7,3.5C125.8,6.7,125.6,6.7,125.5,6.7z"/>
	</g>
	<g>
		<path fill="#0A2645" d="M187.9,103.1c-0.1,0-0.3,0-0.4-0.1l-5.7-2.4c-0.5-0.2-0.8-0.8-0.5-1.3c0.2-0.5,0.8-0.8,1.3-0.5l5.7,2.4
			c0.5,0.2,0.8,0.8,0.5,1.3C188.7,102.9,188.3,103.1,187.9,103.1z"/>
	</g>
	<g>
		<path fill="#0A2645" d="M109.9,14.9c-0.4,0-0.7-0.2-0.9-0.5l-5.8-11.1c-0.3-0.5-0.1-1.1,0.4-1.3c0.5-0.3,1.1-0.1,1.3,0.4l5.8,11.1
			c0.3,0.5,0.1,1.1-0.4,1.3C110.3,14.8,110.1,14.9,109.9,14.9z"/>
	</g>
	<g>
		<path fill="#0A2645" d="M125.5,130c-0.5,0-1-0.4-1-1l-0.2-3.7c0-0.6,0.4-1,1-1c0.5,0,1,0.4,1,1l0.2,3.7
			C126.5,129.5,126.1,130,125.5,130C125.5,130,125.5,130,125.5,130z"/>
	</g>
	<g>
		<path fill="#0A2645" d="M216.1,6.9c-0.2,0-0.3,0-0.5-0.1c-0.5-0.3-0.7-0.9-0.4-1.4l1.9-3.5c0.3-0.5,0.9-0.7,1.4-0.4
			c0.5,0.3,0.7,0.9,0.4,1.4L217,6.4C216.8,6.7,216.4,6.9,216.1,6.9z"/>
	</g>
	<g>
		<path fill="#0A2645" d="M244.1,248.6c-0.5,0-0.9-0.4-1-0.9l-1-7.6c-0.1-0.5,0.3-1.1,0.9-1.1c0.5-0.1,1.1,0.3,1.1,0.9l1,7.6
			c0.1,0.5-0.3,1.1-0.9,1.1C244.2,248.6,244.2,248.6,244.1,248.6z"/>
	</g>
	<g>
		<path fill="#0A2645" d="M203,216.8c-0.4,0-0.9-0.3-1-0.8l-1.1-4.2c-0.1-0.5,0.2-1.1,0.7-1.2c0.5-0.1,1.1,0.2,1.2,0.7l1.1,4.2
			c0.1,0.5-0.2,1.1-0.7,1.2C203.1,216.8,203,216.8,203,216.8z"/>
	</g>
	<g>
		<path fill="#0A2645" d="M73.5,231.5c-0.2,0-0.4-0.1-0.6-0.2c-0.4-0.3-0.5-1-0.2-1.4l8.9-12.3c0.3-0.4,1-0.5,1.4-0.2
			c0.4,0.3,0.5,1,0.2,1.4l-8.9,12.3C74.1,231.4,73.8,231.5,73.5,231.5z"/>
	</g>
	<g>
		<path fill="#0A2645" d="M235.6,12.4c-0.1,0-0.1,0-0.2,0c-0.5-0.1-0.9-0.6-0.8-1.2l1.3-7.8c0.1-0.5,0.6-0.9,1.2-0.8
			c0.5,0.1,0.9,0.6,0.8,1.2l-1.3,7.8C236.5,12.1,236.1,12.4,235.6,12.4z"/>
	</g>
	<g>
		<path fill="#0A2645" d="M245.3,35.5c-0.5,0-0.9-0.3-1-0.8l-0.8-4.6c-0.1-0.5,0.3-1.1,0.8-1.2c0.5-0.1,1.1,0.3,1.2,0.8l0.8,4.6
			c0.1,0.5-0.3,1.1-0.8,1.2C245.4,35.5,245.4,35.5,245.3,35.5z"/>
	</g>
	<g>
		<path fill="#0A2645" d="M72.8,259c-0.5,0-0.9-0.4-1-0.8l-2.1-13.3c-0.1-0.5,0.3-1.1,0.8-1.1c0.5-0.1,1.1,0.3,1.1,0.8l2.1,13.3
			c0.1,0.5-0.3,1.1-0.8,1.1C72.9,259,72.9,259,72.8,259z"/>
	</g>
	<g>
		<path fill="#0A2645" d="M2.3,205.7c-0.2,0-0.3,0-0.5-0.1c-0.5-0.3-0.7-0.9-0.4-1.4l1.8-3.2c0.3-0.5,0.9-0.7,1.4-0.4
			c0.5,0.3,0.7,0.9,0.4,1.4l-1.8,3.2C3,205.5,2.7,205.7,2.3,205.7z"/>
	</g>
	<g>
		<path fill="#0A2645" d="M261.5,73.6c-0.5,0-0.9-0.3-1-0.8c-0.1-0.5,0.2-1.1,0.8-1.2l8.2-1.6c0.5-0.1,1.1,0.2,1.2,0.8
			c0.1,0.5-0.2,1.1-0.8,1.2l-8.2,1.6C261.6,73.6,261.6,73.6,261.5,73.6z"/>
	</g>
	<g>
		<path fill="#0A2645" d="M269.1,209.4c-0.5,0-0.9-0.3-1-0.8l-1.4-8.5c-0.1-0.5,0.3-1.1,0.8-1.1c0.5-0.1,1.1,0.3,1.1,0.8l1.4,8.5
			c0.1,0.5-0.3,1.1-0.8,1.1C269.2,209.4,269.1,209.4,269.1,209.4z"/>
	</g>
	<g>
		<path fill="#0A2645" d="M161.1,100.1c-0.3,0-0.6-0.1-0.8-0.4c-0.3-0.5-0.2-1.1,0.2-1.4l2.5-1.8c0.5-0.3,1.1-0.2,1.4,0.2
			c0.3,0.5,0.2,1.1-0.2,1.4l-2.5,1.8C161.5,100.1,161.3,100.1,161.1,100.1z"/>
	</g>
	<g>
		<path fill="#0A2645" d="M140.5,26.2c-0.4,0-0.7-0.2-0.9-0.5l-1.5-2.7c-0.3-0.5-0.1-1.1,0.4-1.4c0.5-0.3,1.1-0.1,1.4,0.4l1.5,2.7
			c0.3,0.5,0.1,1.1-0.4,1.4C140.8,26.2,140.6,26.2,140.5,26.2z"/>
	</g>
	<g>
		<path fill="#0A2645" d="M90.5,105.9c-0.2,0-0.4,0-0.5-0.1c-0.5-0.3-0.6-0.9-0.3-1.4l4.3-7c0.3-0.5,0.9-0.6,1.4-0.3
			c0.5,0.3,0.6,0.9,0.3,1.4l-4.3,7C91.2,105.7,90.9,105.9,90.5,105.9z"/>
	</g>
	<g>
		<path fill="#0A2645" d="M220.8,250.5c-0.5,0-0.9-0.3-1-0.8c-0.1-0.5,0.2-1.1,0.8-1.2l4-0.9c0.5-0.1,1.1,0.2,1.2,0.8
			c0.1,0.5-0.2,1.1-0.8,1.2l-4,0.9C220.9,250.5,220.9,250.5,220.8,250.5z"/>
	</g>
	<g>
		<path fill="#0A2645" d="M108,139.1c-0.2,0-0.4-0.1-0.5-0.2l-3.7-2.3c-0.5-0.3-0.6-0.9-0.3-1.4c0.3-0.5,0.9-0.6,1.4-0.3l3.7,2.3
			c0.5,0.3,0.6,0.9,0.3,1.4C108.7,138.9,108.3,139.1,108,139.1z"/>
	</g>
	<g>
		<path fill="#0A2645" d="M128.6,204.4c-0.4,0-0.8-0.3-1-0.7c-0.1-0.5,0.2-1.1,0.7-1.2l9.6-2.6c0.5-0.1,1.1,0.2,1.2,0.7
			c0.1,0.5-0.2,1.1-0.7,1.2l-9.6,2.6C128.8,204.4,128.7,204.4,128.6,204.4z"/>
	</g>
	<g>
		<path fill="#0A2645" d="M4.9,112.4c-0.1,0-0.2,0-0.3,0l-2.9-0.9c-0.5-0.2-0.8-0.7-0.7-1.2c0.2-0.5,0.7-0.8,1.2-0.7l2.9,0.9
			c0.5,0.2,0.8,0.7,0.7,1.2C5.7,112.1,5.3,112.4,4.9,112.4z"/>
	</g>
	<g>
		<path fill="#0A2645" d="M127.9,160.7c-0.4,0-0.8-0.2-0.9-0.6l-3.5-8.5c-0.2-0.5,0-1.1,0.5-1.3c0.5-0.2,1.1,0,1.3,0.5l3.5,8.5
			c0.2,0.5,0,1.1-0.5,1.3C128.2,160.7,128.1,160.7,127.9,160.7z"/>
	</g>
	<g>
		<path fill="#0A2645" d="M269.2,180.8c-0.1,0-0.2,0-0.4-0.1l-13.5-5.2c-0.5-0.2-0.8-0.8-0.6-1.3c0.2-0.5,0.8-0.8,1.3-0.6l13.5,5.2
			c0.5,0.2,0.8,0.8,0.6,1.3C270,180.5,269.6,180.8,269.2,180.8z"/>
	</g>
	<g>
		<path fill="#0A2645" d="M225.8,106.1c-0.3,0-0.7-0.2-0.9-0.5c-0.3-0.5-0.1-1.1,0.4-1.4l2.3-1.3c0.5-0.3,1.1-0.1,1.4,0.4
			c0.3,0.5,0.1,1.1-0.4,1.4l-2.3,1.3C226.1,106,225.9,106.1,225.8,106.1z"/>
	</g>
	<g>
		<path fill="#0A2645" d="M200.8,26.3c-0.3,0-0.7-0.2-0.9-0.5l-3.3-5.4c-0.3-0.5-0.1-1.1,0.3-1.4c0.5-0.3,1.1-0.1,1.4,0.3l3.3,5.4
			c0.3,0.5,0.1,1.1-0.3,1.4C201.2,26.3,201,26.3,200.8,26.3z"/>
	</g>
	<g>
		<path fill="#0A2645" d="M1,153.4c0,0-0.1,0-0.1,0c-0.5-0.1-0.9-0.6-0.9-1.1l0.3-2.9c0.1-0.5,0.6-0.9,1.1-0.9
			c0.5,0.1,0.9,0.6,0.9,1.1L2,152.5C1.9,153.1,1.5,153.4,1,153.4z"/>
	</g>
	<g>
		<path fill="#0A2645" d="M260.8,228.9c-0.5,0-0.9-0.4-1-0.9c-0.1-0.5,0.3-1.1,0.9-1.1l7.9-1c0.5-0.1,1.1,0.3,1.1,0.9
			c0.1,0.5-0.3,1.1-0.9,1.1l-7.9,1C260.9,228.9,260.8,228.9,260.8,228.9z"/>
	</g>
	<g>
		<path fill="#0A2645" d="M68.6,138c-0.2,0-0.4-0.1-0.5-0.2l-8.4-5.4c-0.5-0.3-0.6-0.9-0.3-1.4c0.3-0.5,0.9-0.6,1.4-0.3l8.4,5.4
			c0.5,0.3,0.6,0.9,0.3,1.4C69.2,137.8,68.9,138,68.6,138z"/>
	</g>
	<g>
		<path fill="#0A2645" d="M28,75.6c-0.1,0-0.2,0-0.4-0.1l-9.7-3.9c-0.5-0.2-0.8-0.8-0.6-1.3c0.2-0.5,0.8-0.8,1.3-0.6l9.7,3.9
			c0.5,0.2,0.8,0.8,0.6,1.3C28.7,75.4,28.4,75.6,28,75.6z"/>
	</g>
	<g>
		<path fill="#0A2645" d="M3.2,92.5c0,0-0.1,0-0.1,0c-0.5-0.1-0.9-0.6-0.8-1.1l0.5-3.7c0.1-0.5,0.6-0.9,1.1-0.8
			c0.5,0.1,0.9,0.6,0.8,1.1l-0.5,3.7C4.1,92.2,3.7,92.5,3.2,92.5z"/>
	</g>
	<g>
		<path fill="#0A2645" d="M55.7,269.9c-0.1,0-0.2,0-0.3,0l-5.6-1.5c-0.5-0.1-0.8-0.7-0.7-1.2c0.1-0.5,0.7-0.8,1.2-0.7l5.6,1.5
			c0.5,0.1,0.8,0.7,0.7,1.2C56.5,269.6,56.1,269.9,55.7,269.9z"/>
	</g>
	<g>
		<path fill="#0A2645" d="M269.4,270.6c-0.4,0-0.7-0.2-0.9-0.5l-1.5-2.8c-0.3-0.5-0.1-1.1,0.4-1.4c0.5-0.3,1.1-0.1,1.4,0.4l1.5,2.8
			c0.3,0.5,0.1,1.1-0.4,1.4C269.7,270.5,269.5,270.6,269.4,270.6z"/>
	</g>
	<g>
		<path fill="#0A2645" d="M175.1,148.9c-0.2,0-0.5-0.1-0.7-0.3l-7.5-6.9c-0.4-0.4-0.4-1-0.1-1.4c0.4-0.4,1-0.4,1.4-0.1l7.5,6.9
			c0.4,0.4,0.4,1,0.1,1.4C175.7,148.8,175.4,148.9,175.1,148.9z"/>
	</g>
	<g>
		<path fill="#0A2645" d="M69.1,205.8c0,0-0.1,0-0.2,0c-0.5-0.1-0.9-0.6-0.8-1.1l0.8-5c0.1-0.5,0.6-0.9,1.1-0.8
			c0.5,0.1,0.9,0.6,0.8,1.1l-0.8,5C70,205.5,69.6,205.8,69.1,205.8z"/>
	</g>
	<g>
		<path fill="#0A2645" d="M213.7,187.2c-0.5,0-0.9-0.4-1-0.8c-0.1-0.5,0.3-1.1,0.8-1.1l2.7-0.4c0.5-0.1,1.1,0.3,1.1,0.8
			c0.1,0.5-0.3,1.1-0.8,1.1l-2.7,0.4C213.8,187.2,213.7,187.2,213.7,187.2z"/>
	</g>
	<g>
		<path fill="#0A2645" d="M17.6,160.7c-0.2,0-0.4-0.1-0.6-0.2c-0.4-0.4-0.5-1-0.1-1.4l2.2-2.6c0.4-0.4,1-0.5,1.4-0.1
			c0.4,0.4,0.5,1,0.1,1.4l-2.2,2.6C18.1,160.6,17.8,160.7,17.6,160.7z"/>
	</g>
	<g>
		<path fill="#0A2645" d="M268.7,53.9c0,0-0.1,0-0.1,0l-3.2-0.3c-0.5-0.1-0.9-0.6-0.9-1.1c0.1-0.5,0.5-0.9,1.1-0.9l3.2,0.3
			c0.5,0.1,0.9,0.6,0.9,1.1C269.7,53.5,269.2,53.9,268.7,53.9z"/>
	</g>
	<g>
		<path fill="#0A2645" d="M178.4,7.2c-0.4,0-0.7-0.2-0.9-0.6l-2-3.9c-0.2-0.5,0-1.1,0.5-1.3c0.5-0.2,1.1,0,1.3,0.5l2,3.9
			c0.2,0.5,0,1.1-0.5,1.3C178.7,7.2,178.6,7.2,178.4,7.2z"/>
	</g>
	<g>
		<path fill="#0A2645" d="M35.7,53.9c-0.1,0-0.2,0-0.3,0l-11.1-3.4c-0.5-0.2-0.8-0.7-0.7-1.2c0.2-0.5,0.7-0.8,1.2-0.7L36,51.9
			c0.5,0.2,0.8,0.7,0.7,1.2C36.5,53.6,36.1,53.9,35.7,53.9z"/>
	</g>
	<g>
		<path fill="#0A2645" d="M266.8,98.4c-0.1,0-0.2,0-0.3-0.1c-0.5-0.2-0.8-0.7-0.6-1.3l2.3-6.8c0.2-0.5,0.7-0.8,1.3-0.6
			c0.5,0.2,0.8,0.7,0.6,1.3l-2.3,6.8C267.6,98.2,267.2,98.4,266.8,98.4z"/>
	</g>
	<g>
		<path fill="#0A2645" d="M247.5,271.5c-0.2,0-0.4-0.1-0.5-0.2c-0.5-0.3-0.6-0.9-0.3-1.4l3.3-5.2c0.3-0.5,0.9-0.6,1.4-0.3
			c0.5,0.3,0.6,0.9,0.3,1.4l-3.3,5.2C248.1,271.4,247.8,271.5,247.5,271.5z"/>
	</g>
	<g>
		<path fill="#0A2645" d="M142.7,223.4c-0.3,0-0.6-0.1-0.8-0.3l-4-4.7c-0.4-0.4-0.3-1.1,0.1-1.4c0.4-0.4,1.1-0.3,1.4,0.1l4,4.7
			c0.4,0.4,0.3,1.1-0.1,1.4C143.2,223.4,143,223.4,142.7,223.4z"/>
	</g>
	<g>
		<path fill="#0A2645" d="M6.1,131.5c-0.5,0-0.9-0.4-1-0.9c-0.1-0.5,0.3-1,0.9-1.1l12.5-1.5c0.5-0.1,1,0.3,1.1,0.9
			c0.1,0.5-0.3,1-0.9,1.1l-12.5,1.5C6.2,131.5,6.1,131.5,6.1,131.5z"/>
	</g>
	<g>
		<path fill="#0A2645" d="M192,83.3c-0.5,0-0.9-0.3-1-0.8l-1.5-7.9c-0.1-0.5,0.3-1.1,0.8-1.2c0.5-0.1,1.1,0.3,1.2,0.8l1.5,7.9
			c0.1,0.5-0.3,1.1-0.8,1.2C192.2,83.3,192.1,83.3,192,83.3z"/>
	</g>
	<g>
		<path fill="#0A2645" d="M88.2,182.9c-0.2,0-0.5-0.1-0.7-0.2l-7.1-6.2c-0.4-0.4-0.5-1-0.1-1.4c0.4-0.4,1-0.5,1.4-0.1l7.1,6.2
			c0.4,0.4,0.5,1,0.1,1.4C88.7,182.7,88.5,182.9,88.2,182.9z"/>
	</g>
	<g>
		<path fill="#0A2645" d="M201.2,242.2c-0.1,0-0.3,0-0.4-0.1c-0.5-0.2-0.7-0.8-0.5-1.3l3.4-7.7c0.2-0.5,0.8-0.7,1.3-0.5
			c0.5,0.2,0.7,0.8,0.5,1.3l-3.4,7.7C202,242,201.6,242.2,201.2,242.2z"/>
	</g>
	<g>
		<path fill="#0A2645" d="M157.5,54.7c-0.4,0-0.8-0.3-1-0.7l-3.8-13.2c-0.2-0.5,0.2-1.1,0.7-1.2c0.5-0.2,1.1,0.2,1.2,0.7l3.8,13.2
			c0.2,0.5-0.2,1.1-0.7,1.2C157.6,54.7,157.5,54.7,157.5,54.7z"/>
	</g>
	<g>
		<path fill="#0A2645" d="M62.8,162.9c-0.3,0-0.6-0.1-0.8-0.4l-6-8c-0.3-0.4-0.2-1.1,0.2-1.4c0.4-0.3,1.1-0.2,1.4,0.2l6,8
			c0.3,0.4,0.2,1.1-0.2,1.4C63.3,162.8,63.1,162.9,62.8,162.9z"/>
	</g>
	<g>
		<path fill="#0A2645" d="M2,70.9c-0.5,0-1-0.4-1-1l-0.4-9.8c0-0.6,0.4-1,1-1c0.5,0,1,0.4,1,1L3,69.9C3,70.4,2.6,70.9,2,70.9
			C2,70.9,2,70.9,2,70.9z"/>
	</g>
	<g>
		<path fill="#0A2645" d="M178.8,169.1c-0.2,0-0.5-0.1-0.7-0.3c-0.4-0.4-0.4-1-0.1-1.4l2.3-2.5c0.4-0.4,1-0.4,1.4-0.1
			c0.4,0.4,0.4,1,0.1,1.4l-2.3,2.5C179.3,168.9,179.1,169.1,178.8,169.1z"/>
	</g>
	<g>
		<path fill="#0A2645" d="M164.5,125.3c-0.1,0-0.2,0-0.3-0.1c-0.5-0.2-0.8-0.8-0.6-1.3l3.1-9c0.2-0.5,0.8-0.8,1.3-0.6
			c0.5,0.2,0.8,0.8,0.6,1.3l-3.1,9C165.3,125,164.9,125.3,164.5,125.3z"/>
	</g>
	<g>
		<path fill="#0A2645" d="M226,166.8c-0.1,0-0.3,0-0.4-0.1l-11.8-4.8c-0.5-0.2-0.8-0.8-0.6-1.3c0.2-0.5,0.8-0.8,1.3-0.6l11.8,4.8
			c0.5,0.2,0.8,0.8,0.6,1.3C226.8,166.6,226.4,166.8,226,166.8z"/>
	</g>
	<g>
		<path fill="#0A2645" d="M207,114.9c-0.5,0-0.9-0.4-1-0.9l-0.9-6.7c-0.1-0.5,0.3-1.1,0.9-1.1c0.5-0.1,1.1,0.3,1.1,0.9l0.9,6.7
			c0.1,0.5-0.3,1.1-0.9,1.1C207.1,114.9,207,114.9,207,114.9z"/>
	</g>
	<g>
		<path fill="#0A2645" d="M53.4,82.7c-0.1,0-0.3,0-0.4-0.1L42.8,78c-0.5-0.2-0.7-0.8-0.5-1.3c0.2-0.5,0.8-0.7,1.3-0.5l10.2,4.6
			c0.5,0.2,0.7,0.8,0.5,1.3C54.2,82.5,53.8,82.7,53.4,82.7z"/>
	</g>
	<g>
		<path fill="#0A2645" d="M113.7,195.5c-0.1,0-0.1,0-0.2,0c-0.5-0.1-0.9-0.6-0.8-1.2l2.4-11.9c0.1-0.5,0.6-0.9,1.2-0.8
			c0.5,0.1,0.9,0.6,0.8,1.2l-2.4,11.9C114.6,195.2,114.1,195.5,113.7,195.5z"/>
	</g>
	<g>
		<path fill="#0A2645" d="M118,32.9c-0.4,0-0.8-0.3-0.9-0.7c-0.2-0.5,0.1-1.1,0.6-1.3l4.5-1.6c0.5-0.2,1.1,0.1,1.3,0.6
			c0.2,0.5-0.1,1.1-0.6,1.3l-4.5,1.6C118.2,32.9,118.1,32.9,118,32.9z"/>
	</g>
	<g>
		<path fill="#0A2645" d="M117.6,97.9c-0.5,0-1-0.4-1-1c0-0.6,0.4-1,1-1l11.1-0.1c0.6,0,1,0.4,1,1c0,0.6-0.4,1-1,1L117.6,97.9
			C117.7,97.9,117.6,97.9,117.6,97.9z"/>
	</g>
	<g>
		<path fill="#0A2645" d="M235.7,190.3c-0.1,0-0.2,0-0.3,0c-0.5-0.2-0.8-0.7-0.7-1.2l3.9-13.4c0.2-0.5,0.7-0.8,1.2-0.7
			c0.5,0.2,0.8,0.7,0.7,1.2l-3.9,13.4C236.6,190.1,236.2,190.3,235.7,190.3z"/>
	</g>
	<g>
		<path fill="#0A2645" d="M222.1,229.5c-0.4,0-0.8-0.2-0.9-0.6c-0.2-0.5,0.1-1.1,0.6-1.3l6.5-2.6c0.5-0.2,1.1,0.1,1.3,0.6
			c0.2,0.5-0.1,1.1-0.6,1.3l-6.5,2.6C222.4,229.5,222.2,229.5,222.1,229.5z"/>
	</g>
	<g>
		<path fill="#0A2645" d="M180.8,60.8c-0.3,0-0.6-0.2-0.8-0.4l-2-2.9c-0.3-0.5-0.2-1.1,0.3-1.4c0.5-0.3,1.1-0.2,1.4,0.3l2,2.9
			c0.3,0.5,0.2,1.1-0.3,1.4C181.2,60.8,181,60.8,180.8,60.8z"/>
	</g>
	<g>
		<path fill="#0A2645" d="M104.5,82.3c-0.3,0-0.7-0.2-0.9-0.5l-5.6-10c-0.3-0.5-0.1-1.1,0.4-1.4c0.5-0.3,1.1-0.1,1.4,0.4l5.6,10
			c0.3,0.5,0.1,1.1-0.4,1.4C104.8,82.2,104.7,82.3,104.5,82.3z"/>
	</g>
	<g>
		<path fill="#0A2645" d="M157.1,164.1c-0.3,0-0.5-0.1-0.7-0.3l-6.3-6.1c-0.4-0.4-0.4-1,0-1.4c0.4-0.4,1-0.4,1.4,0l6.3,6.1
			c0.4,0.4,0.4,1,0,1.4C157.6,164,157.3,164.1,157.1,164.1z"/>
	</g>
	<g>
		<path fill="#0A2645" d="M183.4,201.9c-0.3,0-0.6-0.1-0.8-0.4c-0.4-0.4-0.3-1.1,0.1-1.4l9-7.5c0.4-0.4,1.1-0.3,1.4,0.1
			c0.4,0.4,0.3,1.1-0.1,1.4l-9,7.5C183.8,201.8,183.6,201.9,183.4,201.9z"/>
	</g>
	<g>
		<path fill="#0A2645" d="M55.8,227.3c-0.1,0-0.1,0-0.2,0l-4.3-0.8c-0.5-0.1-0.9-0.6-0.8-1.2c0.1-0.5,0.6-0.9,1.2-0.8l4.3,0.8
			c0.5,0.1,0.9,0.6,0.8,1.2C56.7,226.9,56.3,227.3,55.8,227.3z"/>
	</g>
	<g>
		<path fill="#0A2645" d="M103.9,250.8c-0.2,0-0.3,0-0.5-0.1L91.2,244c-0.5-0.3-0.7-0.9-0.4-1.4c0.3-0.5,0.9-0.7,1.4-0.4l12.3,6.7
			c0.5,0.3,0.7,0.9,0.4,1.4C104.6,250.6,104.3,250.8,103.9,250.8z"/>
	</g>
	<g>
		<path fill="#0A2645" d="M170.5,80.7c-0.2,0-0.5-0.1-0.6-0.2l-6-5c-0.4-0.4-0.5-1-0.1-1.4c0.4-0.4,1-0.5,1.4-0.1l6,5
			c0.4,0.4,0.5,1,0.1,1.4C171.1,80.6,170.8,80.7,170.5,80.7z"/>
	</g>
	<g>
		<path fill="#0A2645" d="M271.1,139.3c-0.4,0-0.8-0.3-0.9-0.7l-1-2.7c-0.2-0.5,0.1-1.1,0.6-1.3c0.5-0.2,1.1,0.1,1.3,0.6l1,2.7
			c0.2,0.5-0.1,1.1-0.6,1.3C271.4,139.3,271.3,139.3,271.1,139.3z"/>
	</g>
	<g>
		<path fill="#0A2645" d="M51.9,39.9c-0.5,0-0.9-0.4-1-0.9l-1.4-15c-0.1-0.5,0.4-1,0.9-1.1c0.6-0.1,1,0.4,1.1,0.9l1.4,15
			C52.9,39.3,52.5,39.8,51.9,39.9C52,39.9,51.9,39.9,51.9,39.9z"/>
	</g>
	<g>
		<path fill="#0A2645" d="M139.6,242.4c-0.1,0-0.2,0-0.3,0l-2.4-0.8c-0.5-0.2-0.8-0.7-0.6-1.3c0.2-0.5,0.7-0.8,1.3-0.6l2.4,0.8
			c0.5,0.2,0.8,0.7,0.6,1.3C140.5,242.2,140.1,242.4,139.6,242.4z"/>
	</g>
	<g>
		<path fill="#0A2645" d="M125.4,76.6c-0.2,0-0.5-0.1-0.7-0.3l-2.1-1.9c-0.4-0.4-0.4-1-0.1-1.4c0.4-0.4,1-0.4,1.4-0.1l2.1,1.8
			c0.4,0.4,0.4,1,0.1,1.4C125.9,76.5,125.6,76.6,125.4,76.6z"/>
	</g>
	<g>
		<path fill="#0A2645" d="M198.1,152.6c-0.3,0-0.6-0.2-0.8-0.4l-3.7-5.4c-0.3-0.5-0.2-1.1,0.3-1.4c0.5-0.3,1.1-0.2,1.4,0.3l3.7,5.4
			c0.3,0.5,0.2,1.1-0.3,1.4C198.5,152.5,198.3,152.6,198.1,152.6z"/>
	</g>
	<g>
		<path fill="#0A2645" d="M266,37C266,37,265.9,37,266,37c-0.6,0-1-0.5-1-1.1l0.8-13.6c0-0.6,0.5-1,1.1-0.9c0.6,0,1,0.5,0.9,1.1
			L267,36C267,36.6,266.5,37,266,37z"/>
	</g>
	<g>
		<path fill="#0A2645" d="M158.6,21.2c-0.5,0-0.9-0.3-1-0.8c-0.1-0.5,0.3-1.1,0.8-1.1l8.6-1.4c0.5-0.1,1.1,0.3,1.1,0.8
			c0.1,0.5-0.3,1.1-0.8,1.1l-8.6,1.4C158.7,21.2,158.6,21.2,158.6,21.2z"/>
	</g>
	<g>
		<path fill="#0A2645" d="M184.5,225.8c-0.1,0-0.3,0-0.4-0.1l-9.9-4.8c-0.5-0.2-0.7-0.8-0.5-1.3c0.2-0.5,0.8-0.7,1.3-0.5l9.9,4.8
			c0.5,0.2,0.7,0.8,0.5,1.3C185.3,225.6,184.9,225.8,184.5,225.8z"/>
	</g>
	<g>
		<path fill="#0A2645" d="M144.9,117.2c-0.3,0-0.6-0.1-0.8-0.3l-5.5-6.3c-0.4-0.4-0.3-1,0.1-1.4c0.4-0.4,1-0.3,1.4,0.1l5.5,6.3
			c0.4,0.4,0.3,1-0.1,1.4C145.4,117.1,145.1,117.2,144.9,117.2z"/>
	</g>
	<g>
		<path fill="#0A2645" d="M198.4,175.8c-0.1,0-0.2,0-0.2,0c-0.5-0.1-0.9-0.7-0.7-1.2l0.8-3.2c0.1-0.5,0.7-0.9,1.2-0.7
			c0.5,0.1,0.9,0.7,0.7,1.2l-0.8,3.2C199.2,175.5,198.8,175.8,198.4,175.8z"/>
	</g>
	<g>
		<path fill="#0A2645" d="M50,208.4c-0.5,0-0.9-0.3-1-0.8l-3-13.8c-0.1-0.5,0.2-1.1,0.8-1.2c0.5-0.1,1.1,0.2,1.2,0.8l3,13.8
			c0.1,0.5-0.2,1.1-0.8,1.2C50.2,208.3,50.1,208.4,50,208.4z"/>
	</g>
	<g>
		<path fill="#0A2645" d="M111.5,269.7c-0.3,0-0.5-0.1-0.7-0.3c-0.4-0.4-0.4-1,0-1.4l5.8-5.5c0.4-0.4,1-0.4,1.4,0
			c0.4,0.4,0.4,1,0,1.4l-5.8,5.5C112,269.6,111.7,269.7,111.5,269.7z"/>
	</g>
	<g>
		<path fill="#0A2645" d="M45.1,121.8c-0.3,0-0.5-0.1-0.7-0.3l-7.6-8.2c-0.4-0.4-0.4-1,0-1.4c0.4-0.4,1-0.4,1.4,0l7.6,8.2
			c0.4,0.4,0.4,1,0,1.4C45.6,121.7,45.4,121.8,45.1,121.8z"/>
	</g>
	<g>
		<path fill="#0A2645" d="M224.5,205.9C224.5,205.9,224.4,205.9,224.5,205.9l-7.5-0.6c-0.6,0-1-0.5-0.9-1.1c0-0.6,0.5-1,1.1-0.9
			l7.4,0.6c0.6,0,1,0.5,0.9,1.1C225.5,205.5,225,205.9,224.5,205.9z"/>
	</g>
	<g>
		<path fill="#0A2645" d="M230.6,126.4c-0.4,0-0.8-0.3-1-0.7c-0.1-0.5,0.2-1.1,0.7-1.2l7.3-2c0.5-0.1,1.1,0.2,1.2,0.7
			c0.1,0.5-0.2,1.1-0.7,1.2l-7.3,2C230.7,126.4,230.6,126.4,230.6,126.4z"/>
	</g>
	<g>
		<path fill="#0A2645" d="M224.5,270.6c-0.4,0-0.7-0.2-0.9-0.5c-0.3-0.5-0.1-1.1,0.4-1.4l3.5-1.9c0.5-0.3,1.1-0.1,1.4,0.4
			c0.3,0.5,0.1,1.1-0.4,1.4l-3.5,1.9C224.8,270.5,224.6,270.6,224.5,270.6z"/>
	</g>
	<g>
		<path fill="#0A2645" d="M247.2,85.9c-0.1,0-0.3,0-0.4-0.1l-14.1-6.7c-0.5-0.2-0.7-0.8-0.5-1.3c0.2-0.5,0.8-0.7,1.3-0.5l14.1,6.7
			c0.5,0.2,0.7,0.8,0.5,1.3C248,85.7,247.6,85.9,247.2,85.9z"/>
	</g>
	<g>
		<path fill="#0A2645" d="M179.8,250.2c-0.2,0-0.4-0.1-0.6-0.2c-0.4-0.3-0.5-1-0.2-1.4l3.7-4.9c0.3-0.4,1-0.5,1.4-0.2
			c0.4,0.3,0.5,1,0.2,1.4l-3.7,4.9C180.4,250,180.1,250.2,179.8,250.2z"/>
	</g>
	<g>
		<path fill="#0A2645" d="M227,58.3C227,58.3,227,58.3,227,58.3c-0.6-0.1-1-0.5-1-1.1l0.6-6.8c0.1-0.5,0.5-1,1.1-0.9
			c0.6,0.1,1,0.5,0.9,1.1l-0.6,6.8C228,57.9,227.6,58.3,227,58.3z"/>
	</g>
	<g>
		<path fill="#0A2645" d="M206.2,56.2c-0.3,0-0.6-0.1-0.8-0.4l-7.9-9.5c-0.4-0.4-0.3-1.1,0.1-1.4c0.4-0.4,1.1-0.3,1.4,0.1l7.9,9.5
			c0.4,0.4,0.3,1.1-0.1,1.4C206.7,56.2,206.4,56.2,206.2,56.2z"/>
	</g>
	<g>
		<path fill="#0A2645" d="M20.9,100.9c-0.4,0-0.7-0.2-0.9-0.5c-0.3-0.5-0.1-1.1,0.4-1.4l8.2-4.6c0.5-0.3,1.1-0.1,1.4,0.4
			c0.3,0.5,0.1,1.1-0.4,1.4l-8.2,4.6C21.2,100.9,21.1,100.9,20.9,100.9z"/>
	</g>
	<g>
		<path fill="#0A2645" d="M85.3,7.7c-0.5,0-0.9-0.3-1-0.8l-0.9-5.4c-0.1-0.5,0.3-1.1,0.8-1.1c0.5-0.1,1.1,0.3,1.2,0.8l0.9,5.4
			c0.1,0.5-0.3,1.1-0.8,1.1C85.4,7.7,85.4,7.7,85.3,7.7z"/>
	</g>
	<g>
		<path fill="#0A2645" d="M41.7,173.7c-0.3,0-0.6-0.1-0.8-0.4l-3.3-4.6c-0.3-0.4-0.2-1.1,0.2-1.4c0.4-0.3,1.1-0.2,1.4,0.2l3.3,4.6
			c0.3,0.4,0.2,1.1-0.2,1.4C42.1,173.6,41.9,173.7,41.7,173.7z"/>
	</g>
	<g>
		<path fill="#0A2645" d="M266.8,250.7c-0.5,0-0.9-0.4-1-0.8l-0.7-4.5c-0.1-0.5,0.3-1.1,0.8-1.1c0.5-0.1,1.1,0.3,1.1,0.8l0.7,4.5
			c0.1,0.5-0.3,1.1-0.8,1.1C266.9,250.7,266.8,250.7,266.8,250.7z"/>
	</g>
	<g>
		<path fill="#0A2645" d="M119.8,56.6c-0.4,0-0.8-0.2-0.9-0.6c-0.2-0.5,0-1.1,0.6-1.3l13.3-5.3c0.5-0.2,1.1,0,1.3,0.6
			c0.2,0.5,0,1.1-0.6,1.3l-13.3,5.3C120.1,56.6,120,56.6,119.8,56.6z"/>
	</g>
	<g>
		<path fill="#0A2645" d="M163.8,237.5c-0.1,0-0.3,0-0.4-0.1l-7.2-3.2c-0.5-0.2-0.7-0.8-0.5-1.3c0.2-0.5,0.8-0.7,1.3-0.5l7.2,3.2
			c0.5,0.2,0.7,0.8,0.5,1.3C164.6,237.3,164.2,237.5,163.8,237.5z"/>
	</g>
	<g>
		<path fill="#0A2645" d="M244.1,216.5c-0.2,0-0.3,0-0.5-0.1c-0.5-0.3-0.7-0.9-0.4-1.3l6.8-13.4c0.3-0.5,0.9-0.7,1.3-0.4
			c0.5,0.3,0.7,0.9,0.4,1.3L245,216C244.8,216.3,244.5,216.5,244.1,216.5z"/>
	</g>
	<g>
		<path fill="#0A2645" d="M80.4,271.3c-0.5,0-1-0.4-1-0.9c0-0.6,0.4-1,0.9-1.1l12-0.7c0.6,0,1,0.4,1.1,0.9c0,0.6-0.4,1-0.9,1.1
			L80.4,271.3C80.4,271.3,80.4,271.3,80.4,271.3z"/>
	</g>
	<g>
		<path fill="#0A2645" d="M70.4,46.5c-0.4,0-0.8-0.3-1-0.7c-0.2-0.5,0.1-1.1,0.7-1.2l11.4-3.5c0.5-0.2,1.1,0.1,1.2,0.7
			c0.2,0.5-0.1,1.1-0.7,1.2l-11.4,3.5C70.6,46.4,70.5,46.5,70.4,46.5z"/>
	</g>
	<g>
		<path fill="#0A2645" d="M3.8,20.9c-0.5,0-0.9-0.3-1-0.8L0.1,4.8C0,4.3,0.3,3.7,0.9,3.6C1.4,3.5,1.9,3.9,2,4.5l2.7,15.3
			c0.1,0.5-0.3,1.1-0.8,1.2C3.9,20.9,3.8,20.9,3.8,20.9z"/>
	</g>
	<g>
		<path fill="#0A2645" d="M103.5,169.6c-0.5,0-0.9-0.4-1-0.8l-2.2-13.6c-0.1-0.5,0.3-1.1,0.8-1.1c0.5-0.1,1.1,0.3,1.1,0.8l2.2,13.6
			c0.1,0.5-0.3,1.1-0.8,1.1C103.6,169.5,103.5,169.6,103.5,169.6z"/>
	</g>
	<g>
		<path fill="#0A2645" d="M190.3,127.2c-0.1,0-0.2,0-0.3-0.1l-3.8-1.2c-0.5-0.2-0.8-0.7-0.6-1.3c0.2-0.5,0.7-0.8,1.3-0.6l3.8,1.2
			c0.5,0.2,0.8,0.7,0.6,1.3C191.1,126.9,190.7,127.2,190.3,127.2z"/>
	</g>
	<g>
		<path fill="#0A2645" d="M78.3,67.4c-0.4,0-0.7-0.2-0.9-0.6c-0.2-0.5,0-1.1,0.5-1.3l4.6-2.2c0.5-0.2,1.1,0,1.3,0.5
			c0.2,0.5,0,1.1-0.5,1.3l-4.6,2.2C78.6,67.4,78.4,67.4,78.3,67.4z"/>
	</g>
	<g>
		<path fill="#0A2645" d="M135.4,272C135.4,272,135.3,272,135.4,272c-0.6,0-1-0.5-1-1l0.4-14.7c0-0.6,0.5-1,1-1c0.6,0,1,0.5,1,1
			l-0.4,14.7C136.3,271.6,135.9,272,135.4,272z"/>
	</g>
	<g>
		<path fill="#0A2645" d="M95.9,28.6c-0.2,0-0.5-0.1-0.7-0.2l-2-1.7c-0.4-0.4-0.5-1-0.1-1.4c0.4-0.4,1-0.5,1.4-0.1l2,1.7
			c0.4,0.4,0.5,1,0.1,1.4C96.4,28.5,96.1,28.6,95.9,28.6z"/>
	</g>
	<g>
		<path fill="#0A2645" d="M28.2,272.3c-0.3,0-0.5-0.1-0.7-0.3l-2.6-2.6c-0.4-0.4-0.4-1,0-1.4c0.4-0.4,1-0.4,1.4,0l2.6,2.6
			c0.4,0.4,0.4,1,0,1.4C28.7,272.2,28.5,272.3,28.2,272.3z"/>
	</g>
	<g>
		<path fill="#0A2645" d="M94.8,201.2c-0.1,0-0.1,0-0.2,0l-5.2-0.9c-0.5-0.1-0.9-0.6-0.8-1.2c0.1-0.5,0.6-0.9,1.2-0.8l5.2,0.9
			c0.5,0.1,0.9,0.6,0.8,1.2C95.7,200.8,95.3,201.2,94.8,201.2z"/>
	</g>
	<g>
		<path fill="#0A2645" d="M202.9,269.6c-0.5,0-1-0.4-1-0.9l-0.6-9.5c0-0.6,0.4-1,0.9-1.1c0.6,0,1,0.4,1.1,0.9l0.6,9.5
			C203.9,269.1,203.5,269.6,202.9,269.6C202.9,269.6,202.9,269.6,202.9,269.6z"/>
	</g>
	<g>
		<path fill="#0A2645" d="M7,239.5c-0.4,0-0.8-0.3-0.9-0.7l-4.2-12.4c-0.2-0.5,0.1-1.1,0.6-1.3c0.5-0.2,1.1,0.1,1.3,0.6l4.2,12.4
			c0.2,0.5-0.1,1.1-0.6,1.3C7.2,239.4,7.1,239.5,7,239.5z"/>
	</g>
	<g>
		<path fill="#0A2645" d="M29,193.9c-0.2,0-0.5-0.1-0.7-0.3L17.2,183c-0.4-0.4-0.4-1,0-1.4c0.4-0.4,1-0.4,1.4,0l11.1,10.6
			c0.4,0.4,0.4,1,0,1.4C29.6,193.8,29.3,193.9,29,193.9z"/>
	</g>
	<g>
		<path fill="#0A2645" d="M151.7,4.1c-0.3,0-0.7-0.2-0.9-0.5c-0.3-0.5-0.1-1.1,0.3-1.4l3.5-2.1c0.5-0.3,1.1-0.1,1.4,0.3
			c0.3,0.5,0.1,1.1-0.3,1.4L152.2,4C152,4,151.8,4.1,151.7,4.1z"/>
	</g>
	<g>
		<path fill="#0A2645" d="M23.7,29.8c-0.5,0-0.9-0.3-1-0.8c-0.1-0.5,0.3-1.1,0.8-1.2l7.8-1.4c0.6-0.1,1.1,0.3,1.2,0.8
			c0.1,0.5-0.3,1.1-0.8,1.2l-7.8,1.4C23.8,29.8,23.8,29.8,23.7,29.8z"/>
	</g>
	<g>
		<path fill="#0A2645" d="M159.7,270c-0.5,0-0.9-0.4-1-0.9l-1.7-12.7c-0.1-0.5,0.3-1.1,0.9-1.1c0.5-0.1,1.1,0.3,1.1,0.9l1.7,12.7
			c0.1,0.5-0.3,1.1-0.9,1.1C159.8,270,159.8,270,159.7,270z"/>
	</g>
	<g>
		<path fill="#0A2645" d="M20.1,7c-0.3,0-0.7-0.2-0.9-0.5L17,2.6c-0.3-0.5-0.1-1.1,0.4-1.4c0.5-0.3,1.1-0.1,1.4,0.4L21,5.5
			c0.3,0.5,0.1,1.1-0.4,1.4C20.5,6.9,20.3,7,20.1,7z"/>
	</g>
	<g>
		<path fill="#0A2645" d="M30.9,252.5c-0.5,0-0.9-0.3-1-0.8l-2.4-11.6c-0.1-0.5,0.2-1.1,0.8-1.2c0.5-0.1,1.1,0.2,1.2,0.8l2.4,11.6
			c0.1,0.5-0.2,1.1-0.8,1.2C31,252.5,31,252.5,30.9,252.5z"/>
	</g>
	<g>
		<path fill="#0A2645" d="M99.8,224.2c-0.1,0-0.3,0-0.4-0.1c-0.5-0.2-0.7-0.8-0.4-1.3l2.2-4.4c0.2-0.5,0.8-0.7,1.3-0.4
			c0.5,0.2,0.7,0.8,0.4,1.3l-2.2,4.4C100.5,224,100.2,224.2,99.8,224.2z"/>
	</g>
	<g>
		<path fill="#0A2645" d="M148.5,91.4c-0.3,0-0.6-0.1-0.8-0.3l-4.1-4.7c-0.4-0.4-0.3-1,0.1-1.4c0.4-0.4,1-0.3,1.4,0.1l4.1,4.7
			c0.4,0.4,0.3,1-0.1,1.4C149,91.4,148.8,91.4,148.5,91.4z"/>
	</g>
	<g>
		<path fill="#0A2645" d="M144.9,69.9c-0.3,0-0.7-0.2-0.9-0.5l-1.7-2.8c-0.3-0.5-0.1-1.1,0.3-1.4c0.5-0.3,1.1-0.1,1.4,0.3l1.7,2.8
			c0.3,0.5,0.1,1.1-0.3,1.4C145.2,69.9,145.1,69.9,144.9,69.9z"/>
	</g>
	<g>
		<path fill="#0A2645" d="M225.2,31.2c0,0-0.1,0-0.1,0l-8.2-1.1c-0.5-0.1-0.9-0.6-0.9-1.1c0.1-0.5,0.6-0.9,1.1-0.9l8.2,1.1
			c0.5,0.1,0.9,0.6,0.9,1.1C226.1,30.8,225.7,31.2,225.2,31.2z"/>
	</g>
	<g>
		<path fill="#0A2645" d="M73.3,23.5c-0.4,0-0.7-0.2-0.9-0.6L66.2,9c-0.2-0.5,0-1.1,0.5-1.3c0.5-0.2,1.1,0,1.3,0.5l6.2,13.9
			c0.2,0.5,0,1.1-0.5,1.3C73.5,23.5,73.4,23.5,73.3,23.5z"/>
	</g>
	<g>
		<path fill="#0A2645" d="M2.4,181.4c-0.5,0-1-0.4-1-0.9l-0.6-7.6c0-0.6,0.4-1,0.9-1.1c0.6-0.1,1,0.4,1.1,0.9l0.6,7.6
			C3.4,180.9,3,181.3,2.4,181.4C2.4,181.4,2.4,181.4,2.4,181.4z"/>
	</g>
	<g>
		<path fill="#0A2645" d="M76.2,92.6c-0.4,0-0.7-0.2-0.9-0.5l-4.1-7.9c-0.3-0.5-0.1-1.1,0.4-1.3c0.5-0.3,1.1-0.1,1.3,0.4l4.1,7.9
			c0.3,0.5,0.1,1.1-0.4,1.3C76.5,92.6,76.3,92.6,76.2,92.6z"/>
	</g>
	<g>
		<path fill="#0A2645" d="M173.4,39.3c-0.3,0-0.6-0.1-0.8-0.4c-0.3-0.5-0.2-1.1,0.2-1.4l10.8-7.5c0.5-0.3,1.1-0.2,1.4,0.2
			c0.3,0.5,0.2,1.1-0.2,1.4L174,39.1C173.8,39.2,173.6,39.3,173.4,39.3z"/>
	</g>
	<g>
		<path fill="#0A2645" d="M32.1,220.7c-0.2,0-0.4-0.1-0.5-0.2l-10.2-6.6c-0.5-0.3-0.6-0.9-0.3-1.4c0.3-0.5,0.9-0.6,1.4-0.3l10.2,6.6
			c0.5,0.3,0.6,0.9,0.3,1.4C32.7,220.5,32.4,220.7,32.1,220.7z"/>
	</g>
	<g>
		<path fill="#0A2645" d="M3.7,269.4c-0.1,0-0.1,0-0.2,0c-0.5-0.1-0.9-0.6-0.8-1.1l1.8-11.5c0.1-0.5,0.6-0.9,1.1-0.8
			c0.5,0.1,0.9,0.6,0.8,1.1l-1.8,11.5C4.6,269.1,4.2,269.4,3.7,269.4z"/>
	</g>
	<g>
		<path fill="#0A2645" d="M83.1,155.2c-0.4,0-0.8-0.3-1-0.7l-0.8-2.8c-0.1-0.5,0.2-1.1,0.7-1.2c0.5-0.1,1.1,0.2,1.2,0.7l0.8,2.8
			c0.1,0.5-0.2,1.1-0.7,1.2C83.3,155.2,83.2,155.2,83.1,155.2z"/>
	</g>
	<g>
		<path fill="#0A2645" d="M51.7,100.7c-0.2,0-0.5-0.1-0.7-0.2c-0.4-0.4-0.5-1-0.1-1.4l1.7-2c0.4-0.4,1-0.5,1.4-0.1
			c0.4,0.4,0.5,1,0.1,1.4l-1.7,2C52.2,100.6,51.9,100.7,51.7,100.7z"/>
	</g>
	<g>
		<path fill="#0A2645" d="M98.9,52.1c-0.2,0-0.3,0-0.5-0.1c-0.5-0.3-0.6-0.9-0.4-1.4l3.8-6.5c0.3-0.5,0.9-0.6,1.4-0.4
			c0.5,0.3,0.6,0.9,0.4,1.4l-3.8,6.5C99.6,51.9,99.2,52.1,98.9,52.1z"/>
	</g>
	<g>
		<path fill="#0A2645" d="M141.6,182.8c-0.3,0-0.7-0.2-0.8-0.5l-3.1-4.9c-0.3-0.5-0.2-1.1,0.3-1.4c0.5-0.3,1.1-0.2,1.4,0.3l3.1,4.9
			c0.3,0.5,0.2,1.1-0.3,1.4C141.9,182.7,141.7,182.8,141.6,182.8z"/>
	</g>
	<g>
		<path fill="#0A2645" d="M255.2,6.2c-0.5,0-0.9-0.3-1-0.8c-0.1-0.5,0.2-1.1,0.8-1.2l12.8-2.5c0.5-0.1,1.1,0.2,1.2,0.8
			c0.1,0.5-0.2,1.1-0.8,1.2l-12.8,2.5C255.4,6.2,255.3,6.2,255.2,6.2z"/>
	</g>
	<g>
		<path fill="#0A2645" d="M70.2,113.6c-0.1,0-0.1,0-0.2,0l-3.4-0.7c-0.5-0.1-0.9-0.6-0.8-1.2c0.1-0.5,0.6-0.9,1.2-0.8l3.4,0.7
			c0.5,0.1,0.9,0.6,0.8,1.2C71.1,113.3,70.7,113.6,70.2,113.6z"/>
	</g>
	<g>
		<path fill="#0A2645" d="M59.4,65c-0.3,0-0.7-0.2-0.9-0.5l-3.7-6.2c-0.3-0.5-0.1-1.1,0.3-1.4c0.5-0.3,1.1-0.1,1.4,0.3l3.7,6.2
			c0.3,0.5,0.1,1.1-0.3,1.4C59.7,65,59.5,65,59.4,65z"/>
	</g>
	<g>
		<path fill="#0A2645" d="M5.7,42c-0.1,0-0.2,0-0.3,0l-4.2-1.1c-0.5-0.1-0.9-0.7-0.7-1.2c0.1-0.5,0.7-0.9,1.2-0.7L5.9,40
			c0.5,0.1,0.9,0.7,0.7,1.2C6.5,41.7,6.1,42,5.7,42z"/>
	</g>
	<g>
		<path fill="#0A2645" d="M268.1,157.8c0,0-0.1,0-0.1,0l-3.1-0.4c-0.5-0.1-0.9-0.6-0.9-1.1c0.1-0.5,0.6-0.9,1.1-0.9l3.1,0.4
			c0.5,0.1,0.9,0.6,0.9,1.1C269.1,157.4,268.6,157.8,268.1,157.8z"/>
	</g>
	<g>
		<path fill="#0A2645" d="M253.6,141.2c-0.1,0-0.2,0-0.2,0l-4.7-1.2c-0.5-0.1-0.9-0.7-0.7-1.2c0.1-0.5,0.7-0.9,1.2-0.7l4.7,1.2
			c0.5,0.1,0.9,0.7,0.7,1.2C254.5,140.9,254.1,141.2,253.6,141.2z"/>
	</g>
	<g>
		<path fill="#0A2645" d="M159.1,210.6c-0.5,0-0.9-0.4-1-0.9l-1-9.3c-0.1-0.5,0.3-1,0.9-1.1c0.5-0.1,1,0.3,1.1,0.9l1,9.3
			c0.1,0.5-0.3,1-0.9,1.1C159.1,210.6,159.1,210.6,159.1,210.6z"/>
	</g>
	<g>
		<path fill="#0A2645" d="M214.6,89.4c-0.4,0-0.9-0.3-1-0.8l-3.5-14c-0.1-0.5,0.2-1.1,0.7-1.2c0.5-0.1,1.1,0.2,1.2,0.7l3.5,14
			c0.1,0.5-0.2,1.1-0.7,1.2C214.8,89.4,214.7,89.4,214.6,89.4z"/>
	</g>
	<g>
		<path fill="#0A2645" d="M183.3,269.4C183.3,269.4,183.3,269.4,183.3,269.4l-4.3-0.1c-0.6,0-1-0.5-1-1c0-0.6,0.5-1,1-1l4.3,0.1
			c0.6,0,1,0.5,1,1C184.3,269,183.8,269.4,183.3,269.4z"/>
	</g>
</g>
</svg>
